<?xml version="1.0" encoding="iso-8859-1"?>
<!-- Uploaded to: SVG Repo, www.svgrepo.com, Generator: SVG Repo Mixer Tools -->
<!DOCTYPE svg PUBLIC "-//W3C//DTD SVG 1.1//EN" "http://www.w3.org/Graphics/SVG/1.1/DTD/svg11.dtd">
<svg fill="#000000" version="1.1" id="Capa_1" xmlns="http://www.w3.org/2000/svg" xmlns:xlink="http://www.w3.org/1999/xlink" 
	 width="800px" height="800px" viewBox="0 0 362.734 362.734"
	 xml:space="preserve">
<g>
	<path d="M359.076,280.108L251.899,172.932c-2.358-2.356-5.497-3.654-8.837-3.654c-3.341,0-6.479,1.298-8.84,3.657l-6.607,6.609
		l-23.505-23.505c-0.605-0.605-1.818-1.777-0.801-4.28c17.408-39.044,11.344-74.934,2.949-83.328
		C160.528,22.7-9.231,9.428,0.394,19.053c2.528,2.527,164.167,44.189,182.905,62.928c16.469,16.469-8.8,67.212-16.811,88.459
		c-0.74,1.963-3.95,7.973,5.646,17.569l23.509,23.508l-6.606,6.605c-2.359,2.359-3.66,5.499-3.66,8.843
		c0,3.341,1.3,6.479,3.657,8.839L296.211,342.98c2.358,2.355,5.496,3.652,8.836,3.652s6.479-1.297,8.839-3.655l45.188-45.188
		c2.36-2.357,3.66-5.499,3.66-8.842C362.733,285.606,361.435,282.468,359.076,280.108z M302.817,322.715
		c0,0-69.795-69.793-93.803-93.802c-1.72-1.719-0.763-3.053-0.142-3.758c1.122-1.272,4.802-4.801,4.802-4.801
		c2.357-2.358,3.656-5.498,3.656-8.839s-1.299-6.479-3.656-8.839c0,0-17.497-17.497-23.329-23.329
		c-1.497-1.497-0.557-2.633-0.557-2.633l1.914-3.509c0,0,0.955-1.748,2.538-0.165c7.167,7.167,24.534,24.533,24.534,24.533
		c2.359,2.358,5.498,3.657,8.839,3.657s6.479-1.299,8.839-3.657c0,0,3.566-3.725,4.856-4.855c0.638-0.56,1.982-1.521,3.389-0.116
		c22.974,22.973,83.892,83.891,94.695,94.695c1.07,1.07,0.263,3.036-0.395,3.692c-7.323,7.324-25.521,25.523-31.791,31.792
		C305.085,324.908,302.817,322.715,302.817,322.715z"/>
</g>
</svg>